<svg width="207" height="289" fill="none" xmlns="http://www.w3.org/2000/svg"><path d="M46 239l148-21M27 132l148-21" stroke="#fff" stroke-width="5"/><path d="M55.271 115.293c-4.02.529-7.299.967-9.835 1.315-2.537.347-4.6.62-6.189.818a51.822 51.822 0 00-4.03.638c-.79.125-1.944.335-3.463.63-1.52.294-3.197.614-5.033.959l-5.294.838-.078.013c-.159.025-.25-.042-.275-.2-.034-.21.06-.468.282-.773.266-.367.509-.54.728-.521 1.264-.2 2.4-.353 3.41-.459l2.608-.413c1.896-.3 3.263-.706 4.1-1.216.829-.563 1.406-1.519 1.733-2.867.326-1.347.65-3.396.97-6.147.724-6 1.195-11.718 1.414-17.153.211-5.487.362-11.18.454-17.08-.01-1.08-.362-1.941-1.058-2.587-.652-.707-1.329-1.059-2.03-1.055-.544-.022-1.452.04-2.724.188a84.84 84.84 0 00-3.647.497c-1.22.139-2.01.264-2.37.375-.264.042-.412-.043-.446-.253-.033-.211.065-.443.295-.695.222-.305.464-.479.728-.52 2.16-.342 4.696-.69 7.61-1.044 2.914-.353 5.609-.726 8.085-1.118l1.422-.225c1.52-.295 3.404-.837 5.655-1.625a36.638 36.638 0 017-1.838c2.053-.325 4.035-.26 5.943.193a9.832 9.832 0 014.896 2.788c1.4 1.344 2.297 3.254 2.69 5.73.083.527.144 1.084.183 1.672.03.535.04 1.1.026 1.697-.09 2.498-.769 5.035-2.034 7.612a29.045 29.045 0 01-4.713 7.064c-1.929 2.141-3.981 3.843-6.157 5.106-1.392.76-2.65 1.338-3.776 1.732-1.073.386-2.057.65-2.952.792-1.317.208-2.396.217-3.236.026-.84-.19-1.417-.423-1.73-.698-.383-.371-.612-.794-.687-1.268-.076-.474-.006-.89.207-1.248.205-.41.434-.5.686-.27.427.31.806.655 1.136 1.035.33.38.674.676 1.032.89a3.71 3.71 0 002.416.426c2.37-.375 4.441-1.62 6.212-3.737 1.815-2.178 3.174-4.85 4.076-8.017.903-3.166 1.196-6.426.881-9.778-.256-2.983-1.17-5.35-2.744-7.098-1.52-1.757-3.439-2.452-5.757-2.085-2.423.384-4.107 1.514-5.051 3.392-.892 1.87-1.634 4.174-2.226 6.913-.11.666-.274 1.852-.49 3.56-.215 1.709-.427 4.118-.636 7.23-.165 3.05-.324 6.99-.477 11.82.014.43.028 1.372.043 2.827.006 1.403.064 2.96.173 4.671.1 1.658.3 3.084.596 4.279.29 1.142.87 2.077 1.74 2.803.863.673 1.856.975 2.978.905 1.079-.009 2.409-.139 3.989-.389l1.896-.3a98.714 98.714 0 001.713-.434c.158-.025.25.042.275.2.033.211-.079.525-.336.944-.214.358-.483.536-.807.533zm32.058-4.592a20.118 20.118 0 01-5.985.057c-1.944-.34-3.405-1.215-4.385-2.626-.702-1.023-1.211-2.535-1.529-4.537-.292-1.843-.42-3.848-.385-6.013a75.83 75.83 0 01.367-6.376c.262-2.094.526-3.837.792-5.229.393-1.952 1.197-3.861 2.414-5.728 1.216-1.866 2.96-3.466 5.234-4.798.837-.51 1.945-1.01 3.326-1.498a25.886 25.886 0 014.441-1.109c2.055-.325 4.054-.318 5.998.022 1.935.288 3.423 1.159 4.463 2.614.694.97 1.195 2.43 1.504 4.379.284 1.79.386 3.8.306 6.026a72.952 72.952 0 01-.354 6.455c-.218 2.032-.482 3.775-.792 5.228-.401 1.9-1.206 3.809-2.414 5.728-1.216 1.867-2.96 3.466-5.234 4.798-.837.511-1.972 1.015-3.405 1.512-1.38.488-2.835.854-4.362 1.095zm.897-2.005c1.212-.191 2.624-.82 4.237-1.886 1.411-.979 2.435-2.356 3.072-4.131.69-1.783 1.143-3.691 1.361-5.724.218-2.032.36-3.863.426-5.494a69.39 69.39 0 00.023-4.458 35.684 35.684 0 00-.423-4.712c-.35-2.212-.993-4.055-1.928-5.526-.943-1.525-2.363-2.137-4.26-1.837-1.158.184-2.544.808-4.158 1.874-1.366.918-2.39 2.295-3.071 4.131-.69 1.783-1.143 3.691-1.362 5.724a74.443 74.443 0 00-.438 5.415 122.315 122.315 0 00-.09 4.55c.04 1.614.181 3.184.423 4.712.35 2.212.997 4.081 1.94 5.605.936 1.472 2.352 2.058 4.248 1.757zm33.079-6.535c.141-2.182.346-4.806.616-7.873.315-3.128.757-6.303 1.327-9.525.561-3.275 1.3-6.28 2.216-9.018.908-2.79 2.026-4.937 3.353-6.444a6.59 6.59 0 013.069-2.105c1.231-.411 2.5-.748 3.809-1.009a100.41 100.41 0 003.651-.983c1.292-.367 2.41-.976 3.356-1.827l.852.27-4.201 7.226c-1.042.92-2.073 1.57-3.093 1.948-1.029.325-1.983.61-2.861.858l-2.504.558a4.759 4.759 0 00-2.27 1.008c-.918.685-1.752 1.897-2.502 3.636-.751 1.739-1.39 4.35-1.918 7.836-.528 3.486-.939 8.222-1.232 14.208l-1.668 1.236zm-7.225 5.518c.217-3.058.515-6.291.893-9.699.37-3.46.686-6.75.948-9.87.24-2.575.382-4.92.425-7.033.088-2.173.027-3.919-.181-5.236l-.113-.71a2.94 2.94 0 00-.192-.7 2.739 2.739 0 00-.661.43 9.443 9.443 0 01-.661.428l-2.54 1.86-.437-1.227c1.544-1.162 3.212-2.56 5.005-4.194a179.476 179.476 0 004.598-4.211c.461.52.795 1.44 1.004 2.757.225 1.422.32 3.216.285 5.381-.043 2.113-.167 4.4-.371 6.863a448.958 448.958 0 01-.918 11.08 383.184 383.184 0 00-.885 10.265l-6.199 3.816zm31.933-5.057c-.614-3.197-.95-6.68-1.007-10.451-.057-3.771.096-7.575.461-11.413.364-3.837.923-7.463 1.679-10.877l-1.344.213-1.289.042c-1.702.162-3.055.484-4.059.967l-.453-.819 5.218-2.851c.405-.172.84-.322 1.306-.45.465-.128.935-.23 1.409-.304.797-3.15 1.718-5.861 2.762-8.133 1.097-2.28 2.21-3.778 3.338-4.497l8.328-5.207.324.516a25.21 25.21 0 00-6.043 7.356c-1.496 2.828-2.661 5.875-3.494 9.139l3.66-.418a89.987 89.987 0 003.726-.51 48.229 48.229 0 004.704-.987 19.531 19.531 0 004.42-1.753l.549.399-6.848 4.324a21.082 21.082 0 01-3.917 1.35c-1.3.314-2.609.575-3.926.784l-1.58.25a16.29 16.29 0 01-1.593.171 70.906 70.906 0 00-1.146 11.683 262.63 262.63 0 00.197 11.47 76.784 76.784 0 013.124-5.84 60.435 60.435 0 013.795-5.704c1.391-1.786 2.722-3.266 3.995-4.44l.757.69c-1.192 1-2.384 2.511-3.575 4.536a62.625 62.625 0 00-3.366 6.364 114.461 114.461 0 00-2.563 6.32c-.672 1.888-1.07 3.3-1.191 4.238l-6.358 3.842zM37.673 234.674l-.075-.474a1.515 1.515 0 01.004-.487l3.65-.983c1.45-.392 2.667-1.745 3.65-4.061.992-2.263 1.8-5.172 2.425-8.727.634-3.502 1.138-7.308 1.513-11.417.367-4.162.659-8.285.876-12.369.208-4.137.37-7.889.485-11.255a79.324 79.324 0 00-3.568.485c-1.212.191-2.085.303-2.62.334-1.65.153-3.003.475-4.059.966l-.454-.819 5.219-2.851c.404-.172 1.156-.372 2.253-.6a80.098 80.098 0 013.36-.775c.072-1.254.108-2.393.107-3.419a35.27 35.27 0 01.207-2.787c.423-2.443.777-4.47 1.062-6.081.276-1.663.835-3.075 1.678-4.234.834-1.212 2.272-2.358 4.315-3.438.247-.147.696-.38 1.347-.699a52.951 52.951 0 012.088-1.141c.74-.441 1.383-.813 1.929-1.115l.819-.454.479.977-2.034.97c-1.408.655-2.482 1.716-3.221 3.183-.748 1.415-1.305 3.015-1.67 4.801-.312 1.777-.59 3.603-.833 5.477l-.398 3.627a64.754 64.754 0 00-.33 3.536c.64-.048 1.302-.126 1.987-.234l2.054-.326a54.837 54.837 0 005.02-1.038c1.66-.425 3.138-.983 4.433-1.674l.561.478-6.848 4.325c-.967.369-2.154.719-3.56 1.05-1.36.269-2.669.53-3.925.783-.33 4.049-.609 8.089-.834 12.12a740.257 740.257 0 01-.797 12.357c-.4 6.003-1.344 11.12-2.833 15.352-1.429 4.276-4.036 7.416-7.823 9.42-.615.205-1.472.422-2.57.65-1.142.289-2.165.478-3.069.567zm33.81-64.726l-1.006-.732c.116-1.314.099-2.445-.052-3.393-.266-1.686-.892-2.91-1.877-3.672-.932-.77-2.11-1.043-3.531-.817-1.265.2-2.677.828-4.237 1.886l-.496-.57c1.58-1.276 2.965-2.251 4.154-2.926 1.242-.682 2.456-1.199 3.642-1.549a30.21 30.21 0 013.968-1.033l.353.187c.206.616.264 1.497.176 2.645a31.243 31.243 0 01-.489 3.56l-.357 1.839-.224 1.655c-.157 1.051-.165 2.024-.023 2.92zm-35.365 66.673c-2.001.317-3.769.408-5.302.273-1.534-.135-3.224-.407-5.07-.817l-.221-.37c.102-.718.5-1.618 1.192-2.7a68.069 68.069 0 012.236-3.27c.452-.557.877-1.111 1.276-1.66.4-.549.776-1.068 1.13-1.556.355-.488.657-.968.907-1.439.205-.411.375-.87.51-1.377l.583 1.123c-1.695 2.59-2.393 4.833-2.092 6.73.225 1.422 1.063 2.45 2.513 3.085 1.406.695 3.343.82 5.81.375l.138.869c-.676.162-1.304.288-1.884.38a19.67 19.67 0 01-1.726.354zm49.482-25.98a20.151 20.151 0 01-5.984.057c-1.944-.341-3.406-1.216-4.385-2.627-.702-1.023-1.212-2.535-1.529-4.537-.292-1.843-.42-3.848-.385-6.013a75.83 75.83 0 01.367-6.376c.262-2.094.526-3.836.792-5.228.392-1.953 1.197-3.862 2.413-5.729 1.217-1.866 2.961-3.465 5.234-4.797.837-.511 1.946-1.011 3.327-1.499a25.897 25.897 0 014.44-1.109c2.055-.325 4.054-.318 5.998.022 1.936.288 3.424 1.159 4.464 2.614.694.97 1.195 2.43 1.504 4.379.283 1.791.385 3.8.306 6.026a73.331 73.331 0 01-.355 6.455c-.218 2.033-.482 3.775-.791 5.228-.402 1.9-1.206 3.809-2.414 5.729-1.216 1.866-2.961 3.465-5.234 4.797-.837.511-1.972 1.015-3.405 1.512a24.63 24.63 0 01-4.363 1.096zm.898-2.005c1.211-.192 2.624-.821 4.237-1.886 1.41-.98 2.434-2.357 3.071-4.132.69-1.783 1.144-3.691 1.362-5.723.218-2.033.36-3.864.425-5.495a68.67 68.67 0 00.023-4.458 35.702 35.702 0 00-.422-4.712c-.35-2.212-.993-4.055-1.928-5.526-.944-1.525-2.364-2.137-4.26-1.837-1.159.184-2.545.808-4.158 1.874-1.367.918-2.39 2.295-3.072 4.131-.69 1.783-1.143 3.691-1.361 5.724a74.46 74.46 0 00-.438 5.415 122.32 122.32 0 00-.09 4.55c.04 1.614.18 3.184.423 4.712.35 2.212.997 4.081 1.94 5.605.936 1.472 2.351 2.058 4.248 1.758zm27.987-1.355a976.903 976.903 0 00-.249-6.684c-.057-2.745-.054-5.796.008-9.154.062-3.357.213-6.837.453-10.439.239-3.602.627-7.119 1.163-10.552.589-3.441 1.36-6.587 2.312-9.438.997-2.912 2.209-5.317 3.636-7.217 1.471-1.961 3.24-3.24 5.305-3.838.361-.111 1.024-.351 1.992-.72.959-.422 1.87-.809 2.732-1.162l1.281-.607.166.54-1.721 1.407c-2.198 1.806-4.032 4.202-5.503 7.189-1.479 2.934-2.663 6.2-3.551 9.796a93.813 93.813 0 00-2.075 10.939c-.433 3.741-.73 7.325-.889 10.752-.115 3.366-.187 6.32-.216 8.863 1.294-2.743 2.846-5.554 4.658-8.433 1.857-2.94 3.752-5.292 5.686-7.056l.758.69c-1.192.999-2.361 2.48-3.508 4.443a67.961 67.961 0 00-3.221 6.261 75.766 75.766 0 00-2.351 6.123c-.62 1.881-.991 3.289-1.112 4.226l-5.754 4.071zm26.919-48.407l-1.007-.732c.116-1.314.098-2.445-.052-3.393-.267-1.686-.893-2.91-1.877-3.672-.932-.77-2.109-1.043-3.532-.818-1.264.201-2.676.829-4.237 1.886l-.495-.569c1.58-1.276 2.964-2.252 4.153-2.926 1.242-.683 2.456-1.199 3.643-1.549a30.277 30.277 0 013.967-1.033l.275.199c.069.097.133.33.191.699.109.685.107 1.522-.007 2.512-.113.99-.252 1.984-.418 2.982l-.357 1.839a9.153 9.153 0 00-.224 1.655 21.84 21.84 0 00-.157 1.564c-.039.438.006.89.134 1.356zm6.383 4.415a7.841 7.841 0 01-1.934.064 19.393 19.393 0 01-2.113-.557l2.618-4.95c.455.144 1.051.158 1.789.041 1.158-.184 2.438-.629 3.838-1.337a17.304 17.304 0 003.704-2.693c.313-.751.733-1.169 1.26-1.252.316-.05.499.083.549.399.033.21-.071.578-.312 1.102-.241.524-.746 1.252-1.517 2.184a194.64 194.64 0 01-2.39 2.809 425.18 425.18 0 00-2.124 2.442l-.902.953c-.457.18-.888.357-1.293.529-.36.111-.751.2-1.173.266zm-6.423 39.734a4.513 4.513 0 01-.217-.856l-.175-1.106c-.259-1.633-.462-3.599-.61-5.898a128.567 128.567 0 01-.087-7.195c.091-2.498.241-4.789.45-6.875.487-3.749 1.212-6.671 2.176-8.768.964-2.096 2.564-3.754 4.801-4.972.247-.147.696-.38 1.347-.7.696-.38 1.414-.79 2.154-1.232.74-.441 1.383-.813 1.929-1.115l.819-.454.429.661-1.983 1.286c-.882.572-1.719 1.595-2.511 3.071-.801 1.423-1.485 3.07-2.052 4.942a28.208 28.208 0 00-1.162 5.449 159.65 159.65 0 00-.45 6.875 65.12 65.12 0 00-.014 6.563c1.294-2.743 2.847-5.554 4.659-8.433 1.856-2.94 3.751-5.292 5.686-7.056l.678.702c-1.192.999-2.361 2.48-3.508 4.444a82.118 82.118 0 00-3.141 6.248c-.947 2.202-1.731 4.243-2.351 6.123-.62 1.88-.991 3.289-1.113 4.226l-5.754 4.07zm35.755-6.877a20.119 20.119 0 01-5.985.056c-1.944-.34-3.405-1.215-4.385-2.626-.702-1.023-1.211-2.535-1.528-4.537-.292-1.843-.421-3.848-.386-6.013.035-2.166.158-4.291.367-6.376.263-2.094.527-3.837.792-5.229.393-1.952 1.198-3.861 2.414-5.728 1.216-1.866 2.961-3.466 5.234-4.798.837-.51 1.946-1.01 3.326-1.498a25.9 25.9 0 014.441-1.109c2.055-.325 4.054-.318 5.998.022 1.935.288 3.423 1.159 4.464 2.614.693.97 1.194 2.43 1.503 4.379.284 1.791.386 3.8.307 6.026a73.331 73.331 0 01-.355 6.455c-.218 2.033-.482 3.775-.792 5.228-.401 1.9-1.206 3.809-2.413 5.728-1.217 1.867-2.961 3.466-5.234 4.798-.837.511-1.973 1.015-3.406 1.512-1.38.488-2.835.854-4.362 1.096zm.897-2.006c1.212-.191 2.624-.82 4.237-1.886 1.411-.979 2.435-2.356 3.072-4.131.689-1.783 1.143-3.691 1.361-5.723.218-2.033.36-3.864.426-5.495a69.39 69.39 0 00.023-4.458 35.753 35.753 0 00-.422-4.712c-.351-2.212-.994-4.055-1.929-5.526-.943-1.525-2.363-2.137-4.259-1.837-1.159.184-2.545.808-4.158 1.874-1.367.918-2.391 2.295-3.072 4.131-.69 1.783-1.143 3.691-1.361 5.724a74.175 74.175 0 00-.439 5.415 122.537 122.537 0 00-.089 4.55c.04 1.614.18 3.184.422 4.712.351 2.212.998 4.081 1.941 5.605.935 1.472 2.351 2.058 4.247 1.757z" fill="#fff"/><path d="M2 80c23.94-110.392 181.054-97.405 203 0M7 81.158c22.761-104.955 172.135-92.607 193 0M200 207c-22.644 104.411-171.243 92.127-192 0m197 2c-23.941 110.392-181.054 97.405-203 0M2 79v131.5M205 78.993v130.01M200 80v129.01" stroke="#fff" stroke-width="3"/></svg>